# xmcd
#
# Track frame offsets: 
#        150
#        13071
#        26501
#        39875
#        52769
#        64639
#        77484
#        91039
#        103013
#        115732
#        129085
#        140425
#        152385
#        163621
#        175539
#        188377
#        200065
#        211210
#        222989
#
# Disc length: 3116 seconds
#
# Revision: 0
# Processed by: cddbd v1.5.2PL0 Copyright (c) Steve Scherf et al.
# Submitted via: ExactAudioCopy v0.99pb4
#
DISCID=e00c2a13
DTITLE=Robert Johnson - The Complete Recordings [CD1)
DYEAR=1990
DGENRE=Acoustic
TTITLE0=Kindhearted Woman Blues
TTITLE1=I Believe I Will Dust My Broom
TTITLE2=Sweet Home Chicago
TTITLE3=Rambling On My Mind
TTITLE4=When You Got A Good Friend
TTITLE5=Come In My Kitchen
TTITLE6=Terraplane Blues
TTITLE7=Phonograph Blues
TTITLE8=32-20 Blues
TTITLE9=They Are Red Hot
TTITLE10=Dead Shrimp Blues
TTITLE11=Cross Road Blues
TTITLE12=Walking Blues
TTITLE13=Last Fair Deal Gone Down
TTITLE14=Preaching Blues
TTITLE15=If I Had Possession Over Judgement Day
TTITLE16=Stones In My Passway
TTITLE17=I Am A Steady Rollin Man
TTITLE18=From Four Till Late
EXTD=
EXTT0=
EXTT1=
EXTT2=
EXTT3=
EXTT4=
EXTT5=
EXTT6=
EXTT7=
EXTT8=
EXTT9=
EXTT10=
EXTT11=
EXTT12=
EXTT13=
EXTT14=
EXTT15=
EXTT16=
EXTT17=
EXTT18=
PLAYORDER=
